<svg width="1000" height="600" xmlns="http://www.w3.org/2000/svg"><defs><linearGradient id="a" gradientTransform="rotate(90)"><stop offset="5%" stop-color="#3928fc"/><stop offset="95%" stop-color="#6a5dfc"/></linearGradient><linearGradient id="b" gradientTransform="rotate(90)"><stop offset="5%" stop-color="#554ef8"/><stop offset="95%" stop-color="#7f7af9"/></linearGradient><linearGradient id="c" gradientTransform="rotate(90)"><stop offset="5%" stop-color="#7173f5"/><stop offset="95%" stop-color="#9496f7"/></linearGradient><linearGradient id="d" gradientTransform="rotate(90)"><stop offset="5%" stop-color="#8f95f5"/><stop offset="95%" stop-color="#abaff7"/></linearGradient><linearGradient id="e" gradientTransform="rotate(90)"><stop offset="5%" stop-color="#afb2f8"/><stop offset="95%" stop-color="#c3c5f9"/></linearGradient><linearGradient id="f" gradientTransform="rotate(90)"><stop offset="5%" stop-color="#cfd0fc"/><stop offset="95%" stop-color="#dbdbfc"/></linearGradient><linearGradient id="g" gradientTransform="rotate(90)"><stop offset="5%" stop-color="#efedff"/><stop offset="95%" stop-color="#f3f1ff"/></linearGradient></defs><path fill="#1d03ff" d="M0 0h1000v600H0z"/><path d="M0 75c34.155.288 68.31.576 100 1 31.69.424 60.914.986 95 2s73.035 2.482 107-2 62.948-14.912 96-13c33.052 1.912 70.174 16.167 106 23 35.826 6.833 70.357 6.242 104-2s66.4-24.137 96-29c29.6-4.863 56.046 1.306 89 5s72.415 4.913 108 7c35.585 2.087 67.292 5.044 139 8l-40 525H0Z" fill="url(#a)"/><path d="M0 150c40.045-5.309 80.09-10.617 111-8 30.91 2.617 52.688 13.16 85 21s75.16 12.978 110 6 61.671-26.072 90-27c28.329-.928 58.155 16.311 89 21s62.71-3.172 102-12 86.006-18.624 123-19c36.994-.376 64.268 8.668 93 18s58.924 18.952 92 19c33.076.048 69.038-9.476 145-19l-40 450H0Z" fill="url(#b)"/><path d="M0 225c26.128-12.25 52.256-24.501 90-20 37.744 4.501 87.106 25.754 120 28 32.894 2.246 49.322-14.515 81-18 31.678-3.485 78.606 6.306 115 12 36.394 5.694 62.255 7.292 97 10s78.374 6.527 109 8c30.626 1.473 48.25.601 76-1s65.625-3.931 101-13c35.375-9.069 68.25-24.877 103-27 34.75-2.123 71.375 9.438 148 21l-40 375H0Z" fill="url(#c)"/><path d="M0 300c40.219-9.628 80.438-19.257 109-18 28.562 1.257 45.468 13.4 78 23s80.69 16.66 120 15c39.31-1.66 69.772-12.038 98-21 28.228-8.962 54.222-16.507 83-21 28.778-4.493 60.341-5.933 99 3s84.414 28.24 122 32c37.586 3.76 67.004-8.026 97-18 29.996-9.974 60.57-18.135 93-17 32.43 1.135 66.715 11.568 141 22l-40 300H0Z" fill="url(#d)"/><path d="M0 375c35.008 10.083 70.016 20.167 101 14 30.984-6.167 57.945-28.584 89-25 31.055 3.584 66.203 33.168 106 32 39.797-1.168 84.243-33.09 118-35 33.757-1.91 56.825 26.191 89 27 32.175.809 73.459-25.676 109-27 35.541-1.324 65.341 22.511 97 25 31.659 2.489 65.177-16.368 97-18 31.823-1.632 61.95 13.962 94 18s66.025-3.481 140-11l-40 225H0Z" fill="url(#e)"/><path d="M0 450c30.072 4.433 60.143 8.866 90 2s59.498-25.032 99-20 88.865 33.262 123 36c34.135 2.738 53.043-20.018 79-31s58.963-10.191 94-2 72.104 23.783 112 21c39.896-2.783 82.622-23.942 115-22 32.378 1.942 54.41 26.984 86 34 31.59 7.016 72.74-3.996 108-10 35.26-6.004 64.63-7.002 134-8l-40 150H0Z" fill="url(#f)"/><path d="M0 525c30.179 3.638 60.358 7.276 96 10s76.749 4.534 109 1c32.251-3.534 55.648-12.412 87-11 31.352 1.412 70.66 13.112 108 8s72.71-27.038 109-25c36.29 2.038 73.5 28.04 102 32 28.5 3.96 48.289-14.124 82-25s81.345-14.543 115-12c33.655 2.543 53.33 11.298 83 16s69.335 5.35 149 6l-40 75H0Z" fill="url(#g)"/></svg>